# xmcd
#
# Track frame offsets: 
#        150
#        25927
#        52563
#        77622
#        99247
#        123443
#        151172
#        172178
#        197378
#        223582
#
# Disc length: 3316 seconds
#
# Revision: 0
# Processed by: cddbd v1.5.2PL0 Copyright (c) Steve Scherf et al.
# Submitted via: ExactAudioCopy v1.0b3
#
DISCID=700cf20a
DTITLE=Truong Vu - Tinh khuc Tran Thien Thanh 2
DYEAR=2009
DGENRE=
TTITLE0=Nguoi o lai Charlie
TTITLE1=Chuyen tinh Mong Thuong
TTITLE2=Hoa trinh nu
TTITLE3=Chiec ao ba ba
TTITLE4=Thu tinh cua linh
TTITLE5=Tu do em buon
TTITLE6=Yeu nguoi nhu the do
TTITLE7=Muoi sau trang tron
TTITLE8=Tuyet trang
TTITLE9=Dam cuoi dau Xuan
EXTD=
EXTT0=
EXTT1=
EXTT2=
EXTT3=
EXTT4=
EXTT5=
EXTT6=
EXTT7=
EXTT8=
EXTT9=
PLAYORDER=
